<svg id="Layer_1" data-name="Layer 1" xmlns="http://www.w3.org/2000/svg" viewBox="0 0 289.05 75.26"><defs><style>.cls-1{fill:#fafafa;}</style></defs><title>yogasing-logo</title><path class="cls-1" d="M284.73,15.32c-2.1.38-3.36-.37-5-1.16-7.62-3.74-16.53-.84-18.63,6-2,3-1.47,6.79-3.23,9.86a52.33,52.33,0,0,0-3.59,19.07,1.86,1.86,0,0,0-1.09,2.15c-.28,2.12-.58,4.24-.85,6.36a14.71,14.71,0,0,0,13,16.27l.45,0c2.6.14,5.12-.06,7.7,1,2.08.88,4,.1,3.35-2.92-.27-2.59,1.47-4.6,2-6.95a2.11,2.11,0,0,1-1.21-.42,2.11,2.11,0,0,0,1.21.42c1.94-3,1.94-6.53,2.48-9.9-.3-3.83,5.07-5.83,3.28-10.15-4-3-9-2.75-13.59-3.82-1.89-.44-3,.89-3.19,2.91-.15,2.3.34,4,3.19,3.74l1.84.29C271.64,53.73,270,59.24,270,65c-3,3.29-6,1.92-8.9-.08-.82-5.77,1.69-11.12,2.1-16.74,2.8-3.18,3.27-7,2.65-11.18l.28-4c1.76-.41,1.9-1.66,1.64-3.13l.12-1.9c1-.83.91-2.06,1.12-3.19.56-3.06,1.83-5.44,5.51-5.07s5.3,2.47,5.47,6a29.15,29.15,0,0,1,0,4c-.2,2.27.92,3.45,3,3.83,2.35.43,3.39-1.12,3.84-3,.85-3.55,1.56-7.13,2.18-10.73.51-3.15-1.3-5-4.23-4.44ZM258.35,36.11A38.89,38.89,0,0,1,255.08,49v0A38.89,38.89,0,0,0,258.35,36.11ZM179.95,1.86c-2.49-2-5.14-2.5-8.06-1L170,1.2v0l-1.26.64a7.3,7.3,0,0,0-5,5.17c-4.29,9.24-2.39,19.47,5,27.06L175,43c1.23,4.27,4,8.55-.08,12.78-5.61.4-8-2.59-7.88-9.73l-.49-.25L167,46c1.36-2.21.08-2.84-1.85-3-2.23-.22-4.11.27-4.19,3-.12,4.31-.13,8.62-.07,12.93,0,1.41.69,2.24,2.22,1.27,4-.67,7.82,1.17,11.79,1,3.48,1.57,5.24-.75,7-3.08,6.33-8.09,5.23-16.45.35-24.53-3.83-6.34-8.33-12.28-12.53-18.4l.08-2.09.16-3c1.94-1.79,3.86-4,6.84-2.77s2.94,4.11,3.17,6.75a22.53,22.53,0,0,1,0,2.48c-.05,2.29,1.25,3.3,3.35,3.46s3.49-.69,3.67-3c.21-2.64.57-5.27.72-7.91C188.2,1.11,187.95.87,179.95,1.86ZM162.87,45.08a5.33,5.33,0,0,1,3.19.51A5.33,5.33,0,0,0,162.87,45.08ZM183.95,4h0Zm-3,0-1-.92Zm-1-.89c-1.68-.42-3.45-.49-5.12-.92C176.45,2.62,178.23,2.69,179.95,3.11ZM252.16,10c-.56-1.46-8.24-3.31-10.13-2.53s-2.7,2.8-1.88,4.06c3.2,4.88.44,9.54,0,14.27-.4,4.44-1.65,8.8-1.09,13.32l-1,.87-3-10.94-1.14-7c1.72-3.28-.23-6.3-.75-9.39-1.12-6.74-4.77-9.38-11.07-8a5.43,5.43,0,0,0-3.28,2.71c-.75,1.66,0,3.24,2.11,3.66-1.39,11.63-3.42,23.2-3.83,34.94-1.75,4.4-1.18,9.22-2.42,13.71L213.89,61c-3,1.27-.83,3.35.09,3.5,2.82.45,5.91,2.56,8.5.78,2.28-1.56,1.65-4.37.59-6.85-.43-1-.19-2.29-.26-3.45l.9-10,.1-1.85,1.64-6.94,1.6,6.84a29.83,29.83,0,0,0,1.69,10.08c.42,3.94-.26,8.11,2.54,11.53a.7.7,0,0,0,.28.82c3.77,3.7,9.75,3.67,10-.17.32-4.08,1.92-8,1.29-12.18,1.74-5.07,2.25-10.39,2.91-15.64.26-2,2.33-4.24.2-6.39a2.51,2.51,0,0,1,.1-.87c2.8-3.44,2-7.37,1.54-11.26l.33-2.86a10.07,10.07,0,0,1,2-1.46C252.09,13.7,253,12.22,252.16,10ZM231,57.06l-.87-6.76.87,6.76a7.14,7.14,0,0,1,1,4.69A7.14,7.14,0,0,0,231,57.06ZM110.39,29.23c-3.79.32-7.58.75-11.36,1.13-2.77,2.94-2.6,6.31.52,6.44,3.5.15,3.27,2.29,3.85,4.32A78.85,78.85,0,0,1,103.73,56l-1.17,1.49c-4.92.78-7-.71-7.44-5.5-.19-2-.22-3.93-.32-5.9.37-6.75.64-13.49-1.06-20.13l-.09-2.81c.29-2.43.55-4.86-.85-7.09v-4A6.73,6.73,0,0,1,92,9.57a6.73,6.73,0,0,0,.79,2.49c3.7-4.52,6.42-4.67,11-.6.37,1.76.84,3.5,1.09,5.27.3,2.17,1.44,3.33,3.61,3,2-.26,3.41-1.34,3.31-3.56-.07-1.75.37-3.64-1-5.17l-.11-3.91c.29-6-.7-6.87-5.72-4.88l-4,1.34c-2.6.11-5.25-.4-7.79.61-4.21-1.66-5.75,1.51-7.55,4.23a.52.52,0,0,0-.33.41c-2.13,2.4-2.33,5.37-2.33,8.35a214.1,214.1,0,0,0,2.44,27,50.42,50.42,0,0,0,.6,5.42c1.06,4.88,2.2,9.78,7.72,11.76a1,1,0,0,0,.72.48c.76.6,1.48,1.33,2.6,1l4.83.06c2.65.42,4.9,0,6.14-2.76a4.32,4.32,0,0,0,3.86.83c1.19.18,2.86.16,2.64-1.24-.7-4.36.5-9-1.8-13.11,0-.51.05-1,.07-1.54,1.38-3.83-.32-8,1.88-12,1.3-2.29-1.47-4.1-4.26-3.87ZM108.95,5.64c.1.18.21.36.32.52A5.26,5.26,0,0,0,108.95,5.64ZM106,4.09a1.92,1.92,0,0,1,1.67,0,1.92,1.92,0,0,0-1.67,0c-1.15.86-2.27,1.37-3.31,1.05C103.78,5.46,104.89,5,106,4.09ZM102.43,5a2.7,2.7,0,0,1-.6-.4A2.7,2.7,0,0,0,102.43,5Zm.52,2.89,1,1.12-1-1.12A6.24,6.24,0,0,0,96.49,6.3,6.24,6.24,0,0,1,102.95,7.89ZM87.15,44c-.38-5.89-.25-11.87-1.08-17.67.83,5.8.71,11.78,1.08,17.67a35.19,35.19,0,0,0,4.33,13.19A35.22,35.22,0,0,1,87.15,44Zm16-9a5.14,5.14,0,0,0-2-.44,5.14,5.14,0,0,1,2,.44c2.08,1,2,3.49,2,6.06l.32.61-.33-.61C105.22,38.48,105.28,36,103.2,35ZM105,56.11a2.77,2.77,0,0,1-.44,1.38A2.77,2.77,0,0,0,105,56.1ZM99.08,32.22a2.61,2.61,0,0,0,.18,1.62,2.61,2.61,0,0,1-.18-1.62l9-.21Zm109.59-27L209.95,4c-3.46-1.75-7.3-1.5-11-1.75-3.35-.23-4,2.64-1.56,6.14q.1,2.27.19,4.54c-.9,9.88-1.51,19.8-2.83,29.63-.74,5.52,1,11.62-3.31,16.52-.9,1,.41,1.67,1.42,2A7.71,7.71,0,0,0,193,62c-.12.76.26,1,.93.82h1.86c1.77.29,3.53.6,5.3.87,2.16.33,4-.12,4.59-2.51.5-2.18-.16-3.91-2.73-4.26a2.22,2.22,0,0,1,0-.88c2.29-3.46,2.79-12.44.83-15A6.59,6.59,0,0,1,204.95,37c1.09-.39,1-1.21.77-2.09l.09-2.84c-.81-2.41,2.42-4.69.25-7.15L205.84,23c2.35-1.92,2.14-4.54,1.94-7.15.46-2.63-.11-5.46,2.54-7.57,1.18-.94,1.18-3-.35-4.33ZM199,8l-1-1.36-.05,1.42L198,6.63Zm6.31,11.23c0-.76,0-1.55.06-2.34-.05.79-.08,1.57-.06,2.33Zm2.64-11.37c-1,1-1.73,3.21-2.19,5.75.46-2.54,1.23-4.76,2.19-5.76a5.11,5.11,0,0,0,.79-1.94A5.12,5.12,0,0,1,207.95,7.86Zm-179,3.33a1.57,1.57,0,0,0-.88,0c-1.59-.3-3-.28-2.8,1.94a6.35,6.35,0,0,0,.49,4.63A90.86,90.86,0,0,0,23.59,33l-1.71,2.22-5-10.08c-.29-2.5-2.26-4.6-1.34-7.5.44-1.39-.69-2.88-2.75-2.06l-1.79-.35a12.35,12.35,0,0,0-9.9,1.93c-1.88,2-1,4.33.77,4.88,3.28,1,4,3.74,5.31,6.07,2.53,4.41,5.48,8.7,7.25,13.41s5.57,8.3,5.57,13.54c-.44,4.14,2.07,8,1.48,12-1,6.78-.44,7.53,6.45,5.75,1.14-.18,2.27-.4,3.41-.55,1.55-.2,3.11-.6,3.43-2.33.35-1.9,0-3.67-2.37-4.19l-.07-.1c-.65-1.93-.42-4.22-2.27-5.67L29.8,58c.88-4.73-2-9.22-.9-14a60.77,60.77,0,0,0,2.29-20,15.8,15.8,0,0,1,3.68-10.94C34.47,7.44,31.23,10.77,28.95,11.19ZM25.78,31.93,25.95,28a9.26,9.26,0,0,0,1-3.27,9.26,9.26,0,0,1-1,3.27l-.18,3.88L25,33v0Zm-2.23,37.3c0,.64-.08,1.17.25,1.52C23.46,70.4,23.51,69.87,23.55,69.23ZM75.74,35V33.2c0-5.2-1.12-10.2-2.19-15.2C71.81,9.91,65.67,5.33,58.23,6.15,50.37,7,44.69,12.84,45.29,21.06A188.63,188.63,0,0,0,51,57.32a13.27,13.27,0,0,0,13.49,9.75c1.44-.07,3.14.24,3.44-1.9a5.7,5.7,0,0,0,1-.17c5.1.17,6.7-3.69,8-7.41,2-5.86.51-11.77-.52-17.63Zm-21-7.68c-.61.26-.84.72,0,1.77l1,8.09-1-8.09c-.89-1.09-.66-1.55,0-1.81ZM59.85,54l-.12-1.94-.83-.89L57.95,50c2.65-4.34-.46-8.62-.12-12.93.31-2.83-.93-5.42-1.31-8.14l-.66-2-.11-1.85a8.94,8.94,0,0,1-2.61-3.81,8.94,8.94,0,0,0,2.61,3.81c.59-3.72-1.89-7.47.11-11.17L56.95,13a3.68,3.68,0,0,0-.21-.75,3.69,3.69,0,0,1,.21.75h1c3.15,0,4.75,1.45,5.13,4.7.93,7.83,2.1,15.64,3.17,23.46.46,6.35,3,12.6,1,19.08a3,3,0,0,1-.3.76C61.57,61.7,61.35,57.23,59.85,54Zm8.28-13A121.18,121.18,0,0,0,65.5,18.39,121.31,121.31,0,0,1,68.14,41a54.69,54.69,0,0,1,1.81,12A54.63,54.63,0,0,0,68.13,41Zm4.94,19.16c3.38-6,1.69-13.29,1.72-20.13-.84-1.43-1.45-2.87-.53-4-.91,1.15-.27,2.59.54,4.06,0,6.85,1.65,14.1-1.72,20.15Zm80-4.16v-.09c-.3-1-1.11-1-1.94-1a.86.86,0,0,0-.32-.78L148.89,46c.22-6.1-1.64-11.94-2.41-17.91-.06-.44-1-.77-1.46-1.16L143.9,20c1.63-5.12-.73-9.84-1.62-14.66-1-5.14-3.83-6.09-8.33-3.28-3.18,1.91-2.1,5.37-2.42,8-.52,4.31-3.14,8.44-1.5,13,.22,3.06-1.76,5.85-1.12,9-3.37,4.48-2.32,10.06-3.75,15L123.83,56c-1.46,1-2.85,2.25-1.43,4s8.18-.35,9.28-2.75c.35-3.48-1.29-7.41,2.26-10.19h4l1.88,6.09c-.52,2.58-4.93,5.28.24,7.68h10.76L151.95,59l-1.06,1.74c1.3.39,2.18.09,2.34-1.41l-.1-.24C154.48,58.07,154.39,57,153.07,56ZM139.33,4.15a3,3,0,0,0-.51-.65A3,3,0,0,1,139.33,4.15ZM128.75,39.64a27.31,27.31,0,0,1-1.8,7.42,6,6,0,0,0-.12,1.2,6,6,0,0,1,.12-1.2A27.31,27.31,0,0,0,128.75,39.64Zm-1.91,13.61a5.19,5.19,0,0,0,.18-1.18A5.19,5.19,0,0,1,126.84,53.25Zm4.51-10.4c-.9.12-1.37-.72-.95-1.71,1.11-2.57.11-5.58,1.7-8a7.74,7.74,0,0,1-.13-2.45c.81-2.89.15-7.42,3.52-7.85,1.85-.24,1.76,4.61,2.39,7.17.9,3.63,1.31,7.39,1.93,11.09-2.16,3.56-5.6,1.43-8.46,1.8Zm10.18,10.84c.19-.2.1-.42-.51-.69.61.26.7.49.52.69Z" transform="translate(0 0.01)"/><path class="cls-1" d="M180.95,4l-1-.92" transform="translate(0 0.01)"/><path class="cls-1" d="M58.9,51.22l.83.89C59.85,51.44,59.56,51.16,58.9,51.22Z" transform="translate(0 0.01)"/><path class="cls-1" d="M102.95,7.89l1,1.12" transform="translate(0 0.01)"/></svg>