<?xml version="1.0" encoding="utf-8"?>
<!-- Generator: Adobe Illustrator 19.0.0, SVG Export Plug-In . SVG Version: 6.00 Build 0)  -->
<svg version="1.1" id="Layer_1" xmlns="http://www.w3.org/2000/svg" xmlns:xlink="http://www.w3.org/1999/xlink" x="0px" y="0px"
	 viewBox="-211 205.5 76.1 91.5" style="enable-background:new -211 205.5 76.1 91.5;" xml:space="preserve">
<style type="text/css">
	.st0{fill:#FFFFFF;}
	.st1{fill:#FFFFFF;stroke:#000000;stroke-width:2;stroke-linejoin:round;stroke-miterlimit:10;}
</style>
<path class="st0" d="M-161,270.4h-24.3c-2.4,0-2.6-1.2-2.6-1.5v-0.1c0-0.3,0.1-0.5,0.3-0.7l3-3.1c0,0,0.5-0.5,0.6-1.6l1-5.7
	c0.1-0.5,0.5-0.8,1-0.8h17.9c0.5,0,0.9,0.4,1,0.8l1,5.7c0.1,1.1,0.6,1.6,0.6,1.6l3,3.1c0.2,0.2,0.3,0.4,0.3,0.7v0.1
	C-158.4,269.4-158.7,270.4-161,270.4z M-185.2,268.4h24l-2-2c-0.1-0.1-0.9-1-1.1-2.7l-0.7-4.8h-16.2l-0.8,4.9
	c-0.2,1.7-1,2.6-1.1,2.7L-185.2,268.4z"/>
<path class="st0" d="M-150.3,259.3H-196c-4,0-7.1-3.2-7.1-7.5v-31.5c0-4.3,3.1-7.5,7.1-7.5h45.7c4.1,0,7.5,3.4,7.5,7.5v31.4
	C-142.8,255.9-146.2,259.3-150.3,259.3z M-196,216.8c-2.1,0-3.1,1.8-3.1,3.5v31.4c0,1.7,1,3.5,3.1,3.5h45.7c1.9,0,3.5-1.6,3.5-3.5
	v-31.4c0-1.9-1.6-3.5-3.5-3.5H-196z"/>
<path class="st0" d="M-151.1,252.4h-44c-0.6,0-1-0.4-1-1v-30c0-0.6,0.4-1,1-1h44c0.6,0,1,0.4,1,1v30
	C-150.1,252-150.6,252.4-151.1,252.4z M-194.1,250.4h42v-28h-42C-194.1,222.4-194.1,250.4-194.1,250.4z"/>
<path class="st0" d="M-157.4,225.3"/>
<path class="st1" d="M-157.4,225.3"/>
<path class="st0" d="M-158.1,247.4h-28c-1.1,0-2-0.9-2-2v-20h4v18h26V247.4z"/>
<rect x="-182.1" y="234.4" class="st0" width="2" height="11"/>
<rect x="-178.1" y="229.4" class="st0" width="2" height="16.3"/>
<rect x="-174.1" y="237.4" class="st0" width="2" height="8.3"/>
<rect x="-170.1" y="234.4" class="st0" width="2" height="11.3"/>
<rect x="-166.1" y="238.4" class="st0" width="2" height="7.3"/>
<rect x="-162.1" y="230.4" class="st0" width="2" height="15.3"/>
</svg>
