<?xml version="1.0" encoding="utf-8"?>
<!-- Generator: Adobe Illustrator 19.0.0, SVG Export Plug-In . SVG Version: 6.00 Build 0)  -->
<svg version="1.1" id="Layer_1" xmlns="http://www.w3.org/2000/svg" xmlns:xlink="http://www.w3.org/1999/xlink" x="0px" y="0px"
	 viewBox="-204 194.7 90.7 113.3" style="enable-background:new -204 194.7 90.7 113.3;" xml:space="preserve">
<style type="text/css">
	.st0{fill:#FFFFFF;}
</style>
<title>Illustrator File</title>
<path class="st0" d="M-145.9,211.2v17.3c0,0.9,0.5,1.4,1.4,1.4h17.4c0.7,0.1,1.4-0.4,1.6-1.3c0-0.4-0.1-1-0.5-1.3l-17.4-17.2
	c-0.4-0.5-1.4-0.7-1.9-0.1C-145.8,210.3-145.9,210.9-145.9,211.2z"/>
<polygon class="st0" points="-177.4,264.5 -173.9,277.9 -181.3,277.9 "/>
<path class="st0" d="M-125.2,234.6h-23.4c-1,0-1.8-0.9-1.8-1.8l0,0v-23.1c0-1-0.9-1.8-1.8-1.8l0,0h-39.9c-1,0-1.8,0.9-1.8,1.8l0,0
	V293c0,1,0.9,1.8,1.8,1.8h67.1c1,0,1.8-0.9,1.8-1.8v-56.5C-123.3,235.4-124.2,234.6-125.2,234.6z M-160,257c0.4-0.1,1-0.1,1.6-0.1
	s1.2,0,1.6,0c0.4,0,1,0,1.6,0c0.5,0,1.2,0.1,1.6,0.1c0.1,0.4,0.1,1,0.1,1.4c0,0.4,0,1,0,1.4s0,1,0,1.4c0,0.4-0.1,1-0.1,1.4
	c-0.5,0.1-1.2,0.1-1.6,0.1h-1.6h-1.6c-0.5,0-1.2-0.1-1.6-0.1c-0.1-1-0.3-1.9-0.3-3C-160.2,258.8-160.1,258-160,257z M-167.2,289.8
	c-1.2,0-2.1-0.1-3.2-0.3l-1.7-6.2h-10.4l-1.8,6.2c-1,0.1-1.9,0.3-3,0.3c-1.2,0-2.1-0.1-3.1-0.3l10-31.6c0.5-0.1,1.2-0.1,1.7-0.1
	s1.2,0,1.8,0c0.6,0,1.2,0,1.7,0s1.2,0.1,1.8,0.1l9.9,31.6C-164.9,289.6-166.1,289.8-167.2,289.8z M-152.9,289.5
	c-1,0.1-1.9,0.3-3.1,0.3c-1,0-1.9-0.1-3-0.3v-17.9h-3c-0.1-0.4-0.1-0.9-0.1-1.2c0-0.4,0-0.9,0-1.3c0-0.8,0.1-1.6,0.3-2.3h9
	L-152.9,289.5z"/>
</svg>
