<?xml version="1.0" encoding="utf-8"?>
<!-- Generator: Adobe Illustrator 19.0.0, SVG Export Plug-In . SVG Version: 6.00 Build 0)  -->
<svg version="1.1" id="Layer_1" xmlns="http://www.w3.org/2000/svg" xmlns:xlink="http://www.w3.org/1999/xlink" x="0px" y="0px"
	 viewBox="-211 188 76.2 125" style="enable-background:new -211 188 76.2 125;" xml:space="preserve">
<style type="text/css">
	.st0{fill:#FFFFFF;}
</style>
<g>
	<g>
		<g>
			<g>
				<path class="st0" d="M-160.7,188l-3.5,0.1H-202c-5,0-9,4-9,9V279c0,5,4,9,9,9h58.2c5,0,9-4,9-9v-61l0-3.5L-160.7,188z
					 M-142.8,279c0,0.6-0.5,1-1,1H-202c-0.6,0-1-0.4-1-1v-81.9c0-0.5,0.4-1,1-1h37.8V218h21.4L-142.8,279L-142.8,279z"/>
			</g>
		</g>
	</g>
	<polygon class="st0" points="-163.9,268.3 -152.8,268.3 -167.4,246.8 -155.3,228.9 -166.3,228.9 -172.9,238.6 -179.4,228.9 
		-190.5,228.9 -178.4,246.8 -193,268.3 -182.4,268.3 -181.9,268.3 -168.9,268.3 -172.8,261.9 -177.6,261.9 -172.9,255 	"/>
</g>
</svg>
