<?xml version="1.0" encoding="utf-8"?>
<!-- Generator: Adobe Illustrator 19.0.0, SVG Export Plug-In . SVG Version: 6.00 Build 0)  -->
<svg version="1.1" id="Layer_1" xmlns="http://www.w3.org/2000/svg" xmlns:xlink="http://www.w3.org/1999/xlink" x="0px" y="0px"
	 viewBox="-238 237.5 23 27.5" style="enable-background:new -238 237.5 23 27.5;" xml:space="preserve">
<style type="text/css">
	.st0{fill:#FFFFFF;}
</style>
<g>
	<polygon class="st0" points="-220,243.5 -215,240.5 -220,237.5 	"/>
	<path class="st0" d="M-224.4,241.5c-0.1-0.3-0.1-0.7-0.1-1c0-0.7,0.1-1.4,0.3-2H-237c-0.6,0-1,0.4-1,1v1c0,0.6,0.4,1,1,1h1H-224.4z
		"/>
	<path class="st0" d="M-224.2,242.5H-236v11c0,0.6,0.4,1,1,1h5.6l-3.3,3.3c-0.4,0.4-0.4,1,0,1.4c0.4,0.4,1,0.4,1.4,0l4.3-4.3v3.6
		c0,0.6,0.4,1,1,1s1-0.4,1-1v-3.6l4.3,4.3c0.2,0.2,0.5,0.3,0.7,0.3s0.5-0.1,0.7-0.3c0.4-0.4,0.4-1,0-1.4l-3.3-3.3h5.6
		c0.6,0,1-0.4,1-1v-6.8c-0.6,0.2-1.3,0.3-2,0.3C-220.9,247-223.3,245.1-224.2,242.5z"/>
</g>
</svg>
