<?xml version="1.0" encoding="utf-8"?>
<!-- Generator: Adobe Illustrator 19.0.0, SVG Export Plug-In . SVG Version: 6.00 Build 0)  -->
<svg version="1.1"
	 id="Layer_1" xmlns:dc="http://purl.org/dc/elements/1.1/" xmlns:sodipodi="http://sodipodi.sourceforge.net/DTD/sodipodi-0.dtd" xmlns:cc="http://creativecommons.org/ns#" xmlns:rdf="http://www.w3.org/1999/02/22-rdf-syntax-ns#" xmlns:inkscape="http://www.inkscape.org/namespaces/inkscape" xmlns:svg="http://www.w3.org/2000/svg"
	 xmlns="http://www.w3.org/2000/svg" xmlns:xlink="http://www.w3.org/1999/xlink" x="0px" y="0px" viewBox="-199 189.3 100 122.7"
	 style="enable-background:new -199 189.3 100 122.7;" xml:space="preserve">
<style type="text/css">
	.st0{fill:#FFFFFF;}
</style>
<path class="st0" d="M-135,216.5c0,4.5-3.6,8.1-8.1,8.1c-4.5,0-8.1-3.6-8.1-8.1c0-4.5,3.6-8.1,8.1-8.1
	C-138.6,208.4-135,212.1-135,216.5z"/>
<path class="st0" d="M-107.8,243.7c-4.1,0-7.8,1.5-10.6,4c0-0.2,0-0.3,0-0.5c0-6.8-5.5-12.3-12.3-12.3c-6.8,0-12.3,5.5-12.3,12.3
	c0,0,0,0,0,0c0,6.8,5.5,12.3,12.3,12.3c2.6,0,5-0.8,6.9-2.1c-0.1,0.8-0.2,1.6-0.2,2.5c0,8.9,7.2,16.2,16.2,16.2
	c8.9,0,16.2-7.2,16.2-16.2C-91.6,251-98.9,243.7-107.8,243.7z"/>
<path class="st0" d="M-147.8,254.1c1.3-0.9,2.1-2.4,2.1-4.1c0-2.8-2.3-5.1-5.1-5.1c-2.8,0-5.1,2.3-5.1,5.1c0,0.4,0,0.8,0.1,1.1
	c-6,0.2-10.8,5.1-10.8,11.2c0,0,0,0,0,0c0,6.2,5,11.2,11.2,11.2c6.2,0,11.2-5,11.2-11.2c0,0,0,0,0,0
	C-144.2,259-145.6,256.1-147.8,254.1z"/>
<path class="st0" d="M-124.4,268.2c0,4.2-3.4,7.5-7.5,7.5c-4.2,0-7.5-3.4-7.5-7.5c0-4.2,3.4-7.5,7.5-7.5
	C-127.7,260.6-124.4,264-124.4,268.2z"/>
<polygon class="st0" points="-86.3,286.5 -170.4,286.5 -170.4,203.8 -176.8,203.8 -176.8,286.5 -186.3,286.5 -186.3,292.9 
	-176.8,292.9 -176.8,302 -170.4,302 -170.4,292.9 -86.3,292.9 "/>
</svg>
