<?xml version="1.0" encoding="utf-8"?>
<!-- Generator: Adobe Illustrator 19.0.0, SVG Export Plug-In . SVG Version: 6.00 Build 0)  -->
<svg version="1.1" id="Layer_1" xmlns="http://www.w3.org/2000/svg" xmlns:xlink="http://www.w3.org/1999/xlink" x="0px" y="0px"
	 viewBox="-199 188 100 125" style="enable-background:new -199 188 100 125;" xml:space="preserve">
<style type="text/css">
	.st0{fill:#FFFFFF;}
</style>
<g>
	<path class="st0" d="M-157.2,247.1v6.1l-21.8-9.4v-5.2l21.8-9.4v6.2l-15.2,5.8L-157.2,247.1z"/>
	<path class="st0" d="M-143.8,229l-6.1,24.9c-0.2,0.8-0.4,1.5-0.5,1.9c-0.2,0.5-0.4,0.8-0.7,1.1c-0.3,0.3-0.8,0.4-1.4,0.4
		c-1.5,0-2.2-0.6-2.2-1.9c0-0.3,0.1-1.2,0.4-2.5l6-24.9c0.3-1.3,0.6-2.2,0.9-2.7c0.3-0.5,0.9-0.7,1.7-0.7c0.7,0,1.3,0.2,1.7,0.5
		c0.4,0.3,0.6,0.8,0.6,1.4C-143.3,227-143.5,227.8-143.8,229z"/>
	<path class="st0" d="M-119,243.8l-21.8,9.5v-6.1l15.2-6l-15.2-5.9v-6.1l21.8,9.4V243.8z"/>
</g>
<path class="st0" d="M-105,194h-88c-3.3,0-6,2.7-6,6v76c0,3.3,2.7,6,6,6h88c3.3,0,6-2.7,6-6v-76C-99,196.7-101.7,194-105,194z
	 M-120,198c2.2,0,4,1.8,4,4s-1.8,4-4,4s-4-1.8-4-4S-122.2,198-120,198z M-131,198c2.2,0,4,1.8,4,4s-1.8,4-4,4s-4-1.8-4-4
	S-133.2,198-131,198z M-105,276h-88v-66h88V276z M-109,206c-2.2,0-4-1.8-4-4s1.8-4,4-4s4,1.8,4,4S-106.8,206-109,206z"/>
</svg>
